This is my own rip.

There is a small logo for 30 seconds every 20 minutes.  Check out the sample to see what it looks like.

General
Unique ID                        : 197075120103372933004176431538568975219 (0x9443499A42B5857C9807F75AF6445373)
Format                           : Matroska
Format version                   : Version 4 / Version 2
File size                        : 4.93 GiB
Duration                         : 1h 31mn
Overall bit rate mode            : Variable
Overall bit rate                 : 7 747 Kbps
Encoded date                     : UTC 2013-05-06 14:00:26
Writing application              : mkvmerge v6.1.0 ('Old Devil') built on Mar  2 2013 14:32:37
Writing library                  : libebml v1.3.0 + libmatroska v1.4.0

Video
ID                               : 1
Format                           : AVC
Format/Info                      : Advanced Video Codec
Format profile                   : High@L4.1
Format settings, CABAC           : Yes
Format settings, ReFrames        : 4 frames
Codec ID                         : V_MPEG4/ISO/AVC
Duration                         : 1h 31mn
Bit rate mode                    : Variable
Bit rate                         : 7 145 Kbps
Maximum bit rate                 : 25.9 Mbps
Width                            : 1 400 pixels
Height                           : 1 060 pixels
Display aspect ratio             : 4:3
Frame rate                       : 23.976 fps
Color space                      : YUV
Chroma subsampling               : 4:2:0
Bit depth                        : 8 bits
Scan type                        : Progressive
Bits/(Pixel*Frame)               : 0.201
Stream size                      : 4.55 GiB (92%)
Writing library                  : x264 core 129 r2245 bc13772
Language                         : English
Default                          : Yes
Forced                           : No

Audio
ID                               : 2
Format                           : AC-3
Format/Info                      : Audio Coding 3
Mode extension                   : CM (complete main)
Codec ID                         : A_AC3
Duration                         : 1h 31mn
Bit rate mode                    : Constant
Bit rate                         : 448 Kbps
Channel(s)                       : 6 channels
Channel positions                : Front: L C R, Side: L R, LFE
Sampling rate                    : 48.0 KHz
Bit depth                        : 16 bits
Compression mode                 : Lossy
Stream size                      : 292 MiB (6%)
Language                         : English
Default                          : Yes
Forced                           : No

Menu
00:00:00.000                     : en:Opening Titles
00:01:37.514                     : en:The Duo in Melbourne
00:06:07.576                     : en:On the Lam
00:10:43.726                     : en:The Deep Sea Divers
00:13:43.031                     : en:Shipping Out
00:14:27.700                     : en:On the Island
00:20:06.288                     : en:Inside the Palace
00:22:05.658                     : en:the Feast
00:29:31.687                     : en:Princess Gives Warning
00:36:18.718                     : en:The Dive
00:43:26.020                     : en:Sailing to Bali
00:51:45.978                     : en:Shipwrecked
00:58:34.177                     : en:The Proposal Song
01:03:24.884                     : en:Jungle Fight
01:06:25.648                     : en:Morning Song
01:12:00.691                     : en:The Natives
01:15:27.857                     : en:The Wedding
01:26:27.663                     : en:The Escape
